<?xml version="1.0" encoding="utf-8"?>
<!DOCTYPE svg PUBLIC "-//W3C//DTD SVG 1.1//EN" "http://www.w3.org/Graphics/SVG/1.1/DTD/svg11.dtd">
<svg xmlns="http://www.w3.org/2000/svg" xmlns:xlink="http://www.w3.org/1999/xlink" version="1.1" baseProfile="full" width="32" height="32" viewBox="0 0 32 32.00" enable-background="new 0 0 32 32.00" xml:space="preserve">
	<g fill="#005bbc">
		<path fill-opacity="1" stroke-width="0.32" stroke-linejoin="round" d="M 20.4801,-1.52588e-005L 11.52,-1.52588e-005C 5.15768,-1.52588e-005 0,5.15767 0,11.52L 0,20.48C 0,26.8423 5.15768,32 11.52,32L 20.4801,32C 26.8424,32 32.0001,26.8423 32.0001,20.48L 32.0001,11.52C 32.0001,5.15767 26.8424,-1.52588e-005 20.4801,-1.52588e-005 Z "/>
		<path fill="#FFFFFF" fill-opacity="1" stroke-width="0.32" stroke-linejoin="round" d="M 23.2525,21.1583C 24.0687,20.2634 24.4768,19.2146 24.4768,18.0118C 24.4768,17.2744 24.3395,16.7547 24.0651,16.4528C 23.7907,16.1509 23.2991,16 22.5903,16C 21.5927,16 20.3553,16.7111 18.8781,18.1335C 18.1025,18.8852 16.6885,20.2133 14.6362,22.1177C 13.0563,23.5376 11.566,24.2476 10.1651,24.2476C 8.95998,24.2476 7.97556,23.7942 7.2119,22.8873C 6.50312,22.0306 6.14873,20.9925 6.14873,19.773C 6.14873,19.112 6.31936,18.4795 6.66062,17.8757C 7.00189,17.272 7.46605,16.8114 8.05313,16.494C 7.40162,15.8783 6.69045,15.043 5.91963,13.9882C 5.91963,13.4512 6.10935,13.1828 6.4888,13.1828C 6.64153,13.1828 6.86705,13.3248 7.16536,13.6087C 7.59015,14.0145 7.90874,14.2841 8.12114,14.4177C 8.57934,14.7089 9.06379,14.8545 9.5745,14.8545C 10.5243,14.8545 11.6471,14.4022 12.943,13.4978C 12.406,13.3952 11.6853,13.0091 10.7809,12.3397C 9.87638,11.6703 9.32511,11.0994 9.12704,10.6268C 9.18192,10.3906 9.33704,10.2725 9.59239,10.2725C 9.65206,10.2725 10.2487,10.6412 11.3822,11.3786C 12.5612,12.147 13.4167,12.5754 13.9489,12.6637C 14.3999,12.184 14.6254,11.69 14.6254,11.1817C 14.6254,10.0911 13.7687,9.12697 12.0552,8.28932C 12.029,8.10555 12.1018,7.96596 12.2736,7.8705C 12.4168,7.78697 12.5922,7.74757 12.7998,7.75237C 13.5229,7.7643 14.246,8.19386 14.9691,9.04106C 15.6564,9.85005 16.0001,10.6006 16.0001,11.2927C 16.0001,11.906 15.722,12.468 15.166,12.9787C 17.111,13.1601 18.2887,13.2508 18.6991,13.2508C 19.1383,13.2508 19.5499,13.2412 19.9341,13.2221C 19.3041,13.8522 18.3352,14.1672 17.0274,14.1672C 16.6026,14.1672 16.0704,14.1469 15.4309,14.1063C 14.6887,14.0562 14.2448,14.03 14.0992,14.0276C 12.4645,15.4953 10.9765,16.2291 9.63535,16.2291C 9.54228,16.2291 9.45279,16.2291 9.36687,16.2291L 9.96468,16.9916C 9.91457,17.161 9.69263,17.3364 9.29886,17.5178C 8.80486,17.7445 8.46479,17.9545 8.27865,18.1478C 7.92784,18.5105 7.75243,19.0213 7.75243,19.6799C 7.75243,20.5199 7.97079,21.2096 8.40751,21.749C 8.88242,22.3456 9.53631,22.6439 10.3692,22.6439C 11.5051,22.6439 12.7783,21.9793 14.1887,20.65C 14.9405,19.9126 16.3186,18.6072 18.3233,16.7338C 19.8745,15.3282 21.5235,14.6254 23.2704,14.6254C 24.0937,14.6254 24.7763,14.975 25.318,15.6742C 25.8263,16.3233 26.0805,17.0679 26.0805,17.908C 26.0805,18.7408 25.8108,19.4544 25.2715,20.0486C 24.7584,20.6214 24.0854,20.9913 23.2525,21.1583 Z "/>
	</g>
</svg>
