<?xml version="1.0" encoding="utf-8"?>
<!DOCTYPE svg PUBLIC "-//W3C//DTD SVG 1.1//EN" "http://www.w3.org/Graphics/SVG/1.1/DTD/svg11.dtd">
<svg xmlns="http://www.w3.org/2000/svg" xmlns:xlink="http://www.w3.org/1999/xlink" version="1.1" baseProfile="full" width="715.103" height="128" viewBox="0 0 715.10 128.00" enable-background="new 0 0 715.10 128.00" xml:space="preserve">
	<g fill="#2A5B80">
		<path d="M 154.405,96.7905L 168.594,96.7905L 168.594,75.7709L 185.173,75.7709C 190.914,75.6681 195.583,73.9225 199.182,70.5338C 202.78,67.1454 204.635,62.7307 204.747,57.2901C 204.646,51.633 202.811,47.049 199.243,43.5379C 195.675,40.0269 190.985,38.2189 185.173,38.1139L 154.405,38.1139L 154.405,96.7905 Z M 183.49,50.4742C 185.626,50.5062 187.33,51.1452 188.603,52.3914C 189.875,53.6375 190.528,55.2988 190.559,57.3752C 190.528,59.4073 189.875,61.0294 188.603,62.2416C 187.33,63.4537 185.626,64.0749 183.49,64.105L 168.594,64.105L 168.594,50.4742L 183.49,50.4742 Z "/>
		<path d="M 199.039,96.7905L 214.09,96.7905L 219.555,82.424L 242.51,82.424L 247.891,96.7905L 263.531,96.7905L 239.735,38.0407L 223.171,38.0407L 199.039,96.7905 Z M 223.927,70.9045L 231.159,52.2192L 238.222,70.9045L 223.927,70.9045 Z "/>
		<path d="M 293.378,84.357C 288.356,84.2523 284.253,82.6399 281.07,79.5197C 277.887,76.3995 276.244,72.3999 276.141,67.5207C 276.244,62.5612 277.845,58.5126 280.944,55.3748C 284.043,52.237 288.02,50.6175 292.874,50.5163C 298.872,50.5164 303.945,53.1133 308.093,58.3068L 317.846,48.7505C 315.061,45.2173 311.446,42.425 307,40.3737C 302.554,38.3224 297.845,37.2749 292.874,37.231C 283.758,37.4251 276.26,40.3373 270.381,45.9677C 264.502,51.5981 261.461,58.7824 261.258,67.5207C 261.456,76.2104 264.487,83.3418 270.35,88.9149C 276.213,94.4881 283.721,97.3691 292.874,97.5581C 297.675,97.5166 302.261,96.4995 306.632,94.5067C 311.002,92.5139 314.6,89.7947 317.426,86.3489L 307.925,77.0697C 303.959,81.9279 299.11,84.357 293.378,84.357 Z "/>
		<rect x="324.244" y="38.0407" width="14.1882" height="58.7498"/>
		<path d="M 348.627,96.7905L 362.815,96.7905L 362.815,73.2485L 384.34,73.2485L 384.34,61.5827L 362.815,61.5827L 362.815,50.5474L 395.103,50.5474L 395.103,38.0407L 348.627,38.0407L 348.627,96.7905 Z "/>
		<rect x="403.278" y="38.0407" width="14.1882" height="58.7498"/>
		<path d="M 457.331,84.357C 452.309,84.2523 448.206,82.6399 445.023,79.5197C 441.84,76.3995 440.197,72.3999 440.094,67.5207C 440.197,62.5612 441.798,58.5126 444.897,55.3748C 447.996,52.237 451.972,50.6175 456.826,50.5163C 462.824,50.5164 467.898,53.1133 472.046,58.3068L 481.799,48.7505C 479.014,45.2173 475.398,42.425 470.953,40.3737C 466.507,38.3224 461.798,37.2749 456.826,37.231C 447.71,37.4251 440.213,40.3373 434.334,45.9677C 428.455,51.5981 425.414,58.7824 425.211,67.5207C 425.409,76.2104 428.44,83.3418 434.303,88.9149C 440.166,94.4881 447.674,97.3691 456.826,97.5581C 461.628,97.5166 466.214,96.4995 470.585,94.5067C 474.955,92.5139 478.553,89.7947 481.379,86.3489L 471.877,77.0697C 467.911,81.9279 463.063,84.357 457.331,84.357 Z "/>
		<path d="M 502.321,43.7898L 522.669,43.7898L 522.669,96.7905L 528.449,96.7905L 528.449,43.7898L 548.713,43.7898L 548.713,38.0721L 502.321,38.0721L 502.321,43.7898 Z "/>
		<path d="M 559.663,96.7171L 599.498,96.7171L 599.498,91.0835L 565.444,91.0835L 565.444,69.812L 588.819,69.812L 588.819,64.1784L 565.444,64.1784L 565.444,43.7477L 599.161,43.7477L 599.161,38.1141L 559.663,38.1141L 559.663,96.7171 Z "/>
		<path d="M 634.39,91.8509C 627.523,91.6935 621.917,89.3424 617.573,84.7976C 613.229,80.2528 610.986,74.459 610.846,67.4162C 610.99,60.3733 613.225,54.5793 617.552,50.0342C 621.879,45.4891 627.435,43.1378 634.221,42.9803C 637.674,42.9979 640.964,43.7188 644.091,45.1431C 647.218,46.5674 649.898,48.5898 652.131,51.2104L 656.419,46.76C 653.608,43.6603 650.297,41.2951 646.487,39.6645C 642.677,38.0338 638.588,37.2124 634.221,37.2C 625.649,37.3988 618.688,40.3147 613.337,45.9475C 607.987,51.5802 605.23,58.7365 605.066,67.4162C 605.224,76.0591 607.971,83.2046 613.306,88.8528C 618.641,94.501 625.612,97.4272 634.221,97.6313C 638.497,97.6188 642.516,96.7973 646.277,95.1667C 650.038,93.5361 653.363,91.1714 656.251,88.0724L 652.047,83.7899C 649.861,86.3667 647.233,88.3505 644.164,89.7412C 641.095,91.1319 637.837,91.8352 634.39,91.8509 Z "/>
		<path d="M 668.965,96.7905L 674.746,96.7905L 674.746,69.8854L 709.323,69.8854L 709.323,96.7905L 715.103,96.7905L 715.103,38.0407L 709.323,38.0407L 709.323,64.105L 674.746,64.105L 674.746,38.0407L 668.965,38.0407L 668.965,96.7905 Z "/>
	</g>
	<path fill="#2A5B80" d="M 64,-3.05176e-005C 99.3462,-3.05176e-005 128,28.6538 128,64C 128,69.6825 127.259,75.1922 125.869,80.4377L 124.653,80.4183C 103.919,80.4183 87.1107,97.2265 87.1107,117.961C 87.1107,119.856 87.2512,121.719 87.5223,123.539C 80.241,126.418 72.3052,128 64,128C 58.5054,128 53.1726,127.308 48.084,126.005L 56.8146,85.0338L 58.0014,85.0338C 62.9188,85.0338 66.7652,84.6199 69.5404,83.7922C 81.2133,80.2137 88.3461,72.3932 90.9387,60.3308L 94.4625,43.4969C 95.1076,40.4539 95.4302,37.6787 95.4302,35.1713C 95.4302,24.2895 89.2164,18.8304 76.7888,18.7939L 51.8484,18.7939L 30.6541,118.637C 12.2691,107.393 -1.52588e-005,87.129 -1.52588e-005,64L 0.0105591,62.8242C 17.1309,59.3334 30.0128,44.1905 30.0128,26.039C 30.0128,20.9452 28.9983,16.0883 27.1604,11.6595C 37.5773,4.31409 50.2848,-3.05176e-005 64,-3.05176e-005 Z M 66.9659,36.9972L 71.2383,36.9972C 74.2448,36.9972 75.748,38.4031 75.748,41.2148C 75.748,41.9086 75.6567,42.6693 75.4742,43.497L 71.9321,60.3309C 71.2505,63.4469 69.6134,65.4857 67.0207,66.4474C 66.3756,66.6664 65.0245,66.776 62.9675,66.776L 60.6852,66.776L 66.9659,36.9972 Z "/>
</svg>
